<?xml version="1.0" ?><!DOCTYPE svg  PUBLIC '-//W3C//DTD SVG 1.1//EN'  'http://www.w3.org/Graphics/SVG/1.1/DTD/svg11.dtd'><svg style="enable-background:new 0 0 499.979 404.265;" version="1.1" viewBox="0 0 499.979 404.265" xml:space="preserve" xmlns="http://www.w3.org/2000/svg" xmlns:xlink="http://www.w3.org/1999/xlink"><g id="cloud-question-mark"><g id="cloud-question-mark_1_"><path d="M404.179,119.452c-4.323,0-8.528,0.387-12.701,0.945C387.832,53.29,332.279,0,264.272,0    c-55.51,0-97.805,40.418-115.269,89.975c-9.321-2.445-24.006-8.688-34.089-8.688C51.456,81.286,0,132.731,0,196.212    c0,63.458,51.456,114.882,114.914,114.882c19.426,0,52.014,0,88.635,0c1.308,3.754,3.668,7.016,6.8,9.375    c-8.688,9.311-13.387,20.917-13.387,33.789c0,13.516,5.053,25.722,14.664,35.334c9.59,9.59,21.851,14.674,35.484,14.674    c13.591,0,25.872-5.063,35.537-14.61c9.687-9.59,14.803-21.839,14.803-35.398c0-13.344-5.064-25.336-14.524-34.84    c2.5-2.231,4.387-5.085,5.503-8.324c51.788,0,98.341,0,115.751,0c52.893,0,95.8-42.907,95.8-95.832    C499.979,162.359,457.072,119.452,404.179,119.452z M268.563,375.453c-5.931,5.857-13.087,8.817-21.453,8.817    c-8.357,0-15.479-2.961-21.357-8.817c-5.857-5.878-8.806-12.936-8.806-21.196c0-8.259,2.906-15.275,8.72-21.11    c5.482-5.471,12.089-8.26,19.748-8.56c0.461-0.022,0.89-0.15,1.362-0.15c0.482,0,0.923,0.129,1.384,0.15    c7.862,0.3,14.663,3.089,20.316,8.56c5.974,5.835,8.978,12.85,8.978,21.11C277.455,362.517,274.494,369.575,268.563,375.453z     M279.375,263.339c-2.564,3.754-4.709,8.796-6.447,15.082c-1.738,6.264-2.865,14.995-3.315,26.173h-21.507h-2.649h-23.095    l-0.171-7.853c0-15.596,2.832-29.734,8.528-42.498c5.717-12.722,14.932-24.649,27.739-35.806    c12.324-10.812,19.769-18.277,22.322-22.333c2.543-4.054,3.829-8.817,3.829-14.287c0-7.445-3.111-13.73-9.332-18.9    c-6.21-5.171-14.566-7.788-25.025-7.788c-10.683,0-19.469,3.174-26.323,9.461c-6.865,6.307-10.351,14.437-10.458,24.37h-45.685    c-0.247-22.354,7.434-40.889,23.008-55.477c15.575-14.61,36.096-21.947,61.56-21.947c16.39,0,30.346,3.025,41.845,9.075    c11.499,6.05,20.724,14.759,27.642,26.173c6.908,11.392,10.372,23.363,10.372,35.912c0,6.844-1.105,13.581-3.325,20.21    c-2.21,6.65-5.706,13.429-10.448,20.402c-2.789,4.076-9.483,10.919-20.08,20.573C288.267,253.063,281.928,259.541,279.375,263.339    z" style="fill:#484C4D;"/></g></g><g id="Layer_1"/></svg>